<svg xmlns="http://www.w3.org/2000/svg"  viewBox="0 0 50 50" width="50px" height="50px"><path d="M 12.365234 10.351562 L 11.5 10.851562 L 1.5 16.628906 L 0.63476562 17.128906 L 1.1347656 17.994141 L 14.134766 40.511719 L 14.634766 41.376953 L 15.5 40.876953 L 48.5 21.830078 L 49.365234 21.330078 L 48.865234 20.464844 L 43.865234 11.798828 L 43.365234 10.931641 L 42.5 11.431641 L 20.365234 24.212891 L 12.865234 11.21875 L 12.365234 10.351562 z M 11.908203 12.058594 L 19.658203 25.486328 L 16.091797 27.544922 L 8.3417969 14.121094 L 11.908203 12.058594 z M 42.908203 12.638672 L 47.658203 20.873047 L 44.091797 22.931641 L 39.341797 14.699219 L 42.908203 12.638672 z M 7.9082031 14.371094 L 15.783203 28.011719 A 0.250025 0.250025 0 0 0 16.125 28.103516 L 20.109375 25.802734 A 0.250025 0.250025 0 0 0 20.125 25.794922 L 38.908203 14.949219 L 43.658203 23.181641 L 15.091797 39.669922 L 2.3417969 17.587891 L 7.9082031 14.371094 z"/></svg>