<?xml version="1.0" encoding="utf-8"?>
<!-- Generator: Adobe Illustrator 16.0.0, SVG Export Plug-In . SVG Version: 6.00 Build 0)  -->
<!DOCTYPE svg PUBLIC "-//W3C//DTD SVG 1.1//EN" "http://www.w3.org/Graphics/SVG/1.1/DTD/svg11.dtd">
<svg version="1.1" id="Layer_1" xmlns="http://www.w3.org/2000/svg" xmlns:xlink="http://www.w3.org/1999/xlink" x="0px" y="0px"
	 width="128px" height="128px" viewBox="0 0 128 128" enable-background="new 0 0 128 128" xml:space="preserve">
<g>
	<g>
		<polygon fill="#282D33" points="72.613,35.177 55.391,35.177 47.451,19.483 51.017,17.68 57.847,31.182 70.157,31.182 
			76.984,17.68 80.551,19.483 		"/>
	</g>
	<g>
		<path fill="#282D33" d="M63.995,97.338l-0.571-0.171c-5.863-1.763-11.05-3.812-15.414-6.089l-1.234-0.645l7.465-58.216
			l3.963,0.508l-7.109,55.438c3.733,1.841,8.066,3.521,12.909,5.004c5.018-1.51,9.259-3.105,12.9-4.854l-7.125-55.587l3.962-0.508
			l7.486,58.396l-1.253,0.639c-4.269,2.174-9.308,4.11-15.407,5.918L63.995,97.338z"/>
	</g>
	<g>
		<g>
			<g>
				<path fill="#282D33" d="M64.002,128l-4.103-1.185c-23.087-6.663-53.78-20.133-53.78-60.002V15.472L64.005,0l57.876,15.474
					v51.339c0,39.869-30.691,53.339-53.777,60.002L64.002,128z M10.114,18.54v48.273c0,37.175,29.046,49.857,50.893,56.163
					l2.995,0.864l2.993-0.864c21.848-6.305,50.891-18.988,50.891-56.163V18.542L64.005,4.136L10.114,18.54z"/>
			</g>
			<g>
				<path fill="#282D33" d="M64.01,115.762l-0.768-0.217c-5.642-1.628-10.748-3.451-15.188-5.42
					c-8.148-3.617-14.407-7.831-19.133-12.882c-7.35-7.855-10.923-17.81-10.923-30.43V24.462l46.005-12.297l45.997,12.298v42.35
					c0,25.005-13.525,39.577-45.226,48.727L64.01,115.762z M21.994,27.53v39.283c0,11.558,3.221,20.619,9.845,27.701
					c4.354,4.651,10.188,8.563,17.837,11.958c4.185,1.857,9.002,3.583,14.324,5.133c29.438-8.57,42.006-21.979,42.006-44.792V27.531
					l-42.002-11.23L21.994,27.53z"/>
			</g>
		</g>
	</g>
</g>
</svg>
